<mxfile host="app.diagrams.net" modified="2024-07-01T17:25:24.792Z" agent="Mozilla/5.0 (Windows NT 10.0; Win64; x64) AppleWebKit/537.36 (KHTML, like Gecko) Chrome/126.0.0.0 Safari/537.36" version="24.6.4" etag="uw5dO6VLm9weBiMBw0NU" type="github">
  <diagram name="Страница — 1" id="I606FqCubbA2zrZHktwn">
    <mxGraphModel>
      <root>
        <mxCell id="0" />
        <mxCell id="1" parent="0" />
      </root>
    </mxGraphModel>
  </diagram>
</mxfile>
